<?xml version="1.0" encoding="UTF-8" standalone="no"?>
<!-- Created with Inkscape (http://www.inkscape.org/) -->

<svg
   version="1.1"
   id="svg1"
   width="3304.9187"
   height="1812.8105"
   viewBox="0 0 3304.9187 1812.8105"
   xmlns="http://www.w3.org/2000/svg"
   xmlns:svg="http://www.w3.org/2000/svg">
  <defs
     id="defs1">
    <clipPath
       clipPathUnits="userSpaceOnUse"
       id="clipPath3">
      <path
         d="M 0,3000 H 3000 V 0 H 0 Z"
         transform="translate(-2535.3849,-2013.2583)"
         id="path3" />
    </clipPath>
    <clipPath
       clipPathUnits="userSpaceOnUse"
       id="clipPath5">
      <path
         d="M 0,3000 H 3000 V 0 H 0 Z"
         transform="translate(-2221.0918,-1935.0481)"
         id="path5" />
    </clipPath>
    <clipPath
       clipPathUnits="userSpaceOnUse"
       id="clipPath7">
      <path
         d="M 0,3000 H 3000 V 0 H 0 Z"
         transform="translate(-728.37412,-1553.2971)"
         id="path7" />
    </clipPath>
    <clipPath
       clipPathUnits="userSpaceOnUse"
       id="clipPath9">
      <path
         d="M 0,3000 H 3000 V 0 H 0 Z"
         transform="translate(-2387.2423,-1070.3347)"
         id="path9" />
    </clipPath>
    <clipPath
       clipPathUnits="userSpaceOnUse"
       id="clipPath11">
      <path
         d="M 0,3000 H 3000 V 0 H 0 Z"
         transform="translate(-2493.3745,-1012.7709)"
         id="path11" />
    </clipPath>
    <clipPath
       clipPathUnits="userSpaceOnUse"
       id="clipPath13">
      <path
         d="M 0,3000 H 3000 V 0 H 0 Z"
         transform="translate(-2535.7594,-1948.8468)"
         id="path13" />
    </clipPath>
    <clipPath
       clipPathUnits="userSpaceOnUse"
       id="clipPath15">
      <path
         d="M 0,3000 H 3000 V 0 H 0 Z"
         transform="translate(-1816.2765,-1187.4292)"
         id="path15" />
    </clipPath>
    <clipPath
       clipPathUnits="userSpaceOnUse"
       id="clipPath17">
      <path
         d="M 0,3000 H 3000 V 0 H 0 Z"
         transform="translate(-1572.1735,-1303.3468)"
         id="path17" />
    </clipPath>
    <clipPath
       clipPathUnits="userSpaceOnUse"
       id="clipPath19">
      <path
         d="M 0,3000 H 3000 V 0 H 0 Z"
         transform="translate(-2290.836,-1319.9487)"
         id="path19" />
    </clipPath>
    <clipPath
       clipPathUnits="userSpaceOnUse"
       id="clipPath21">
      <path
         d="M 0,3000 H 3000 V 0 H 0 Z"
         transform="translate(-2221.0918,-1935.0481)"
         id="path21" />
    </clipPath>
    <clipPath
       clipPathUnits="userSpaceOnUse"
       id="clipPath23">
      <path
         d="M 0,3000 H 3000 V 0 H 0 Z"
         transform="translate(-562.84222,-1868.7873)"
         id="path23" />
    </clipPath>
    <clipPath
       clipPathUnits="userSpaceOnUse"
       id="clipPath25">
      <path
         d="M 0,3000 H 3000 V 0 H 0 Z"
         transform="translate(-581.13472,-1182.8148)"
         id="path25" />
    </clipPath>
    <clipPath
       clipPathUnits="userSpaceOnUse"
       id="clipPath27">
      <path
         d="M 0,3000 H 3000 V 0 H 0 Z"
         transform="translate(-980.27612,-1184.2956)"
         id="path27" />
    </clipPath>
    <clipPath
       clipPathUnits="userSpaceOnUse"
       id="clipPath29">
      <path
         d="M 0,3000 H 3000 V 0 H 0 Z"
         transform="translate(-918.67742,-1942.0851)"
         id="path29" />
    </clipPath>
    <clipPath
       clipPathUnits="userSpaceOnUse"
       id="clipPath31">
      <path
         d="M 0,3000 H 3000 V 0 H 0 Z"
         transform="translate(-1284.0931,-1539.4879)"
         id="path31" />
    </clipPath>
    <clipPath
       clipPathUnits="userSpaceOnUse"
       id="clipPath33">
      <path
         d="M 0,3000 H 3000 V 0 H 0 Z"
         transform="translate(-749.80292,-1490.6391)"
         id="path33" />
    </clipPath>
    <clipPath
       clipPathUnits="userSpaceOnUse"
       id="clipPath35">
      <path
         d="M 0,3000 H 3000 V 0 H 0 Z"
         transform="translate(-728.37412,-1553.2971)"
         id="path35" />
    </clipPath>
    <clipPath
       clipPathUnits="userSpaceOnUse"
       id="clipPath37">
      <path
         d="M 0,3000 H 3000 V 0 H 0 Z"
         transform="translate(-2387.2423,-1070.3347)"
         id="path37" />
    </clipPath>
    <clipPath
       clipPathUnits="userSpaceOnUse"
       id="clipPath39">
      <path
         d="M 0,3000 H 3000 V 0 H 0 Z"
         transform="translate(-2551.7355,-1957.5471)"
         id="path39" />
    </clipPath>
    <clipPath
       clipPathUnits="userSpaceOnUse"
       id="clipPath41">
      <path
         d="M 0,3000 H 3000 V 0 H 0 Z"
         transform="translate(-581.13472,-1182.8148)"
         id="path41" />
    </clipPath>
    <clipPath
       clipPathUnits="userSpaceOnUse"
       id="clipPath43">
      <path
         d="M 0,3000 H 3000 V 0 H 0 Z"
         transform="translate(-980.27612,-1184.2956)"
         id="path43" />
    </clipPath>
    <clipPath
       clipPathUnits="userSpaceOnUse"
       id="clipPath45">
      <path
         d="M 0,3000 H 3000 V 0 H 0 Z"
         transform="translate(-2528.6095,-1988.394)"
         id="path45" />
    </clipPath>
    <clipPath
       clipPathUnits="userSpaceOnUse"
       id="clipPath47">
      <path
         d="M 0,3000 H 3000 V 0 H 0 Z"
         transform="translate(-2528.6095,-1988.394)"
         id="path47" />
    </clipPath>
  </defs>
  <g
     id="layer-MC0"
     transform="translate(-347.54132,-1093.5947)">
    <path
       id="path1"
       d="M 2739.345,820.196 H 260.656 v 1359.608 h 2478.689 z"
       style="fill:#ffffff;fill-opacity:1;fill-rule:nonzero;stroke:none"
       transform="matrix(1.3333333,0,0,-1.3333333,0,4000)" />
    <path
       id="path2"
       d="m 0,0 c -19.061,-0.092 -34.265,-15.456 -34.247,-34.606 0.018,-19.051 15.289,-34.25 34.507,-34.345 19.402,-0.095 34.73,15.412 34.552,34.958 C 34.639,-14.955 19.228,0.093 0,0 m -42.01,-1000.487 c -13.037,-0.788 -25.499,-1.613 -37.97,-2.243 -3.019,-0.153 -3.735,-1.426 -3.853,-4.257 -0.637,-15.363 6.113,-33.315 28.306,-38.172 14.899,-3.261 29.872,-3.489 44.935,-1.828 11.203,1.236 21.792,4.476 31.256,10.705 11.874,7.814 20.19,18.296 23.195,32.484 2.671,12.615 -1.787,23.593 -12.483,30.761 -3.865,2.59 -8.087,4.454 -12.467,6.021 -10.272,3.674 -20.886,6.012 -31.532,8.244 -3.851,0.807 -7.773,1.521 -11.23,3.472 -4.26,2.404 -5.018,5.908 -2.296,9.92 2.341,3.45 5.778,5.371 9.812,5.962 2.731,0.401 5.554,0.463 8.316,0.317 9.517,-0.504 13.166,-3.559 15.003,-13.03 0.531,-2.739 1.602,-3.381 4.114,-3.224 11.338,0.708 22.679,1.402 34.029,1.865 3.102,0.126 3.717,1.366 3.786,4.196 0.405,16.452 -8.135,27.686 -25.013,32.117 -13.401,3.518 -27.041,3.443 -40.736,2.144 -10.731,-1.017 -20.99,-3.532 -30.365,-9.029 -9.289,-5.446 -16.348,-12.872 -20.032,-23.153 -5.107,-14.251 -0.956,-26.173 11.808,-34.168 3.544,-2.219 7.332,-3.919 11.228,-5.428 8.021,-3.105 16.381,-4.941 24.736,-6.823 4.747,-1.069 9.498,-2.259 13.825,-4.52 7.006,-3.661 8.24,-10.872 2.952,-16.786 -3.719,-4.159 -8.494,-6.149 -14.034,-6.77 -16.501,-1.849 -24.044,4.193 -25.29,21.223 m -78.812,11.232 c 4.964,1.672 8.546,2.652 11.947,4.064 17.678,7.337 28.762,23.864 28.095,41.681 -0.418,11.175 -6.803,19.923 -17.352,23.62 -4.388,1.538 -8.948,2.483 -13.581,2.729 -28.737,1.528 -57.5,0.467 -86.249,0.799 -2.389,0.027 -4.031,-0.42 -4.18,-3.272 -0.082,-1.597 -0.692,-3.16 -0.997,-4.751 -4.538,-23.641 -9.066,-47.284 -13.594,-70.926 -2.831,-14.778 -5.674,-29.553 -8.483,-44.335 -1.21,-6.365 -1.177,-6.397 5.562,-6.413 9.74,-0.024 19.481,-0.01 29.221,-0.01 7.971,0 7.919,0.014 9.402,7.985 2.454,13.199 4.939,26.394 7.506,39.572 0.963,4.942 1.513,5.22 6.414,4.712 6.389,-0.661 10.607,-3.987 12.965,-9.995 4.733,-12.059 9.675,-24.036 14.44,-36.082 2.979,-7.532 2.23,-6.123 8.783,-6.168 12.29,-0.084 24.582,-0.059 36.872,0.015 1.721,0.011 3.652,-0.694 5.637,1.106 -3.608,9.866 -7.249,19.818 -10.889,29.771 -3.939,10.771 -8.538,21.03 -21.519,25.894 m -1989.337,476.149 c 0,-174.149 0,-348.298 -0.01,-522.446 0,-9.277 -0.066,-7.964 7.76,-7.964 271.623,0 543.246,-0.013 814.87,0.024 10.854,0 10.084,-2.025 12.103,10.004 6.943,41.378 13.834,82.764 20.846,124.13 6.16,36.337 12.525,72.639 18.675,108.976 9.015,53.253 17.898,106.528 26.878,159.787 4.971,29.483 10.065,58.945 15.034,88.429 7.087,42.057 14.07,84.131 21.173,126.185 4.902,29.026 9.98,58.022 14.893,87.047 7.233,42.734 14.364,85.486 21.584,128.223 6.758,39.999 13.574,79.988 20.367,119.981 5.589,32.903 11.225,65.798 16.753,98.712 1.872,11.146 2.183,9.589 -8.362,9.59 -331.701,0.024 -663.401,0.019 -995.102,0.031 -7.838,0 -7.525,0.578 -7.463,-7.568 0.01,-0.695 0,-1.391 0,-2.087 0,-173.685 0,-347.369 0,-521.054 m 1341.929,-120.3 c -0.57,2.419 -0.02,4.214 0.3,6.03 5.759,32.613 10.974,65.318 17.028,97.885 4.785,25.74 8.505,51.675 12.863,77.495 7.058,41.819 14.269,83.613 21.383,125.422 6.256,36.763 12.429,73.54 18.712,110.298 5.737,33.567 11.596,67.113 17.356,100.676 5.916,34.472 11.781,68.953 17.659,103.431 1.285,7.538 2.408,15.106 3.853,22.613 0.603,3.135 -0.322,4.366 -3.425,4.168 -0.924,-0.059 -1.855,10e-4 -2.783,10e-4 -26.674,10e-4 -53.349,0.013 -80.023,-0.005 -6.337,-0.004 -6.411,-0.037 -7.469,-6.231 -7.252,-42.476 -14.451,-84.961 -21.708,-127.436 -4.214,-24.66 -8.473,-49.313 -12.784,-73.957 -0.881,-5.04 -1.031,-5.089 -6.07,-5.104 -14.149,-0.041 -28.298,-0.014 -42.447,-0.014 -40.36,0.001 -80.719,-0.006 -121.079,0.007 -6.515,0.002 -6.428,0.027 -5.299,6.575 2.597,15.07 5.067,30.16 7.648,45.232 8.842,51.631 17.711,103.256 26.563,154.885 1.021,5.954 1.004,6.028 -5.373,6.035 -27.138,0.03 -54.277,0.032 -81.415,-10e-4 -5.763,-0.007 -5.797,-0.089 -6.712,-5.472 -4.349,-25.593 -8.671,-51.191 -13.018,-76.785 -9.855,-58.026 -19.7,-116.055 -29.586,-174.077 -6.381,-37.449 -12.816,-74.889 -19.249,-112.33 -5.296,-30.819 -10.598,-61.637 -15.947,-92.447 -3.368,-19.399 -6.94,-38.763 -10.218,-58.177 -4.511,-26.72 -8.753,-53.486 -13.251,-80.209 -6.656,-39.545 -13.433,-79.069 -20.163,-118.601 -7.194,-42.256 -14.372,-84.515 -21.596,-126.765 -5.739,-33.563 -11.545,-67.114 -17.305,-100.673 -5.369,-31.279 -10.729,-62.559 -16.067,-93.843 -1.354,-7.936 -2.609,-15.889 -3.847,-23.454 1.458,-1.233 2.648,-1.114 3.796,-1.114 28.067,-0.01 56.133,-0.032 84.199,0.01 4.968,0.01 5.003,0.127 5.927,5.561 5.123,30.144 10.188,60.297 15.348,90.435 8.209,47.948 16.477,95.887 24.721,143.83 1.215,7.066 1.219,7.078 8.156,7.078 53.813,0.003 107.626,0.002 161.439,-0.002 1.621,0 3.247,0.017 4.86,-0.108 1.384,-0.106 2.019,-1.023 1.839,-2.372 -0.152,-1.145 -0.49,-2.265 -0.686,-3.407 -5.61,-32.643 -11.236,-65.284 -16.81,-97.934 -6.901,-40.425 -13.791,-80.851 -20.6,-121.292 -1.181,-7.014 -2.843,-13.977 -3.228,-21.032 2.494,-1.26 4.854,-0.747 7.131,-0.751 23.195,-0.039 46.39,-0.024 69.586,-0.023 3.943,0 7.891,0.123 11.828,-0.038 3.088,-0.126 4.647,0.869 4.998,4.184 0.488,4.601 1.482,9.148 2.258,13.718 8.487,50.036 16.974,100.071 25.462,150.106 0.366,2.158 0.544,4.389 2.358,6.429 0.714,-4.088 1.399,-7.725 1.981,-11.378 5.282,-33.147 16.686,-63.989 34.77,-92.312 29.897,-46.824 71.447,-74.931 127.672,-79.66 32.393,-2.724 63.863,1.25 94.236,12.821 38.164,14.539 69.599,38.364 95.265,69.992 1.638,2.018 2.669,4.832 5.613,5.587 0.924,-1.611 0.331,-2.978 0.103,-4.312 -3.943,-23.076 -7.9,-46.15 -11.887,-69.218 -1.007,-5.82 -1.06,-5.901 4.656,-5.906 32.937,-0.03 65.874,10e-4 98.812,-0.028 5.608,-0.01 5.483,0.415 6.357,5.768 3.214,19.674 6.708,39.301 10.066,58.952 5.231,30.609 10.431,61.223 15.653,91.833 4.87,28.539 9.805,57.068 14.566,85.625 0.634,3.803 2.428,4.864 6.058,4.822 13.452,-0.156 26.906,-0.089 40.359,-0.057 28.76,0.068 57.522,-0.13 86.271,1.008 23.698,0.939 47.119,3.258 69.908,10.579 46.599,14.969 81.556,43.443 104.873,86.758 22.567,41.92 32.896,86.808 35.565,133.874 0.886,15.614 -0.977,31.034 -3.288,46.403 -3.698,24.601 -11.679,47.61 -25.769,68.344 -18.127,26.674 -42.474,44.212 -74.147,51.34 -17.048,3.837 -34.303,5.889 -51.736,5.944 -53.813,0.171 -107.626,0.114 -161.439,0.14 -20.18,0.01 -40.359,0.021 -60.539,-0.009 -5.744,-0.009 -5.745,-0.074 -6.66,-5.403 -1.49,-8.679 -2.987,-17.357 -4.463,-26.039 -9.948,-58.471 -19.887,-116.944 -29.858,-175.412 -0.242,-1.421 -0.368,-3.012 -1.518,-4.147 -2.133,1.411 -2.265,3.416 -2.935,5.063 -4.286,10.541 -9.365,20.676 -15.307,30.374 -8.277,13.509 -18.027,25.873 -29.432,36.868 -3.263,3.147 -5.066,6.052 -3.647,10.907 1.484,5.08 1.861,10.48 2.758,15.734 7.296,42.709 14.605,85.415 21.898,128.123 2.807,16.438 5.657,32.869 8.311,49.331 0.56,3.475 2.142,4.842 5.534,4.51 1.379,-0.135 2.781,-0.025 4.173,-0.023 26.674,0.044 53.352,-0.144 80.022,0.207 21.32,0.281 42.707,0.507 63.706,4.908 48.087,10.078 84.912,35.303 108.126,79.512 22.035,41.964 30.957,86.566 28.548,133.593 -0.964,18.836 -4.434,37.275 -12.17,54.665 -15.615,35.103 -40.988,58.448 -79.588,65.785 -17.39,3.306 -34.966,4.125 -52.619,4.116 -56.132,-0.031 -112.265,0.056 -168.397,-0.06 -13.112,-0.027 -10.476,2.436 -12.846,-11.211 -7.418,-42.703 -14.637,-85.442 -21.946,-128.164 -6.133,-35.848 -12.289,-71.693 -18.428,-107.54 -6.374,-37.217 -12.75,-74.432 -19.108,-111.652 -4.719,-27.627 -9.406,-55.259 -14.117,-82.887 -3.271,-19.182 -6.542,-38.364 -9.849,-57.54 -0.86,-4.991 -1.119,-5.214 -6.402,-4.617 -8.533,0.965 -17.064,1.766 -25.669,1.73 -8.822,-0.036 -17.629,-0.212 -26.384,-1.385 -3.045,-0.407 -4.381,0.438 -3.558,3.762 0.61,2.462 0.794,5.028 1.224,7.538 6.995,40.865 13.981,81.731 21.008,122.59 9.469,55.05 19.003,110.089 28.452,165.143 11.326,65.99 22.59,131.991 33.887,197.986 1.06,6.194 1.082,6.274 -5.175,6.282 -27.139,0.035 -54.277,0.035 -81.415,0.001 -5.583,-0.007 -5.678,-0.15 -6.631,-5.633 -2.262,-13.009 -4.521,-26.02 -6.734,-39.038 -7.259,-42.702 -14.451,-85.415 -21.756,-128.109 -10.436,-60.998 -20.97,-121.98 -31.423,-182.975 -10.487,-61.192 -20.947,-122.389 -31.328,-183.598 -0.619,-3.646 -1.977,-6.41 -4.931,-8.741 -31.775,-25.07 -54.756,-56.998 -72.398,-93.075 -1.094,-2.237 -1.707,-4.78 -4.047,-6.838 m -265.973,-498.26 c -388.744,0 -777.487,0 -1166.23,0 -9.545,0 -9.545,0 -9.545,9.469 0,405.554 0,811.107 0,1216.661 0,9.209 0,9.21 9.177,9.21 h 2332.46 c 9.119,0 9.119,-0.001 9.119,-9.235 0,-405.786 0,-811.572 0,-1217.358 0,-8.746 0,-8.747 -8.752,-8.747 -388.743,0 -777.486,0 -1166.229,0"
       style="fill:#010202;fill-opacity:1;fill-rule:nonzero;stroke:none"
       transform="matrix(1.3333333,0,0,-1.3333333,3380.5131,1315.6557)"
       clip-path="url(#clipPath3)" />
    <path
       id="path4"
       d="m 0,0 v 0.137 c -14.149,0 -28.299,0.041 -42.448,-0.023 -4.975,-0.023 -5.686,-0.676 -6.469,-5.243 -3.279,-19.145 -6.526,-38.296 -9.789,-57.444 -4.429,-25.987 -8.868,-51.972 -13.288,-77.96 -0.737,-4.335 -1.424,-8.68 -2.084,-13.029 -0.351,-2.316 0.721,-3.49 3.068,-3.501 1.392,-0.007 2.784,-0.062 4.175,-0.034 20.153,0.407 40.302,-0.453 60.473,1.056 15.272,1.142 30.457,2.291 45.412,5.736 16.13,3.715 29.617,11.979 40.521,24.193 11.454,12.83 19.178,27.72 22.763,44.687 3.701,17.511 4.801,34.878 -2.006,51.943 C 95.514,-17.416 87.263,-8.977 74.637,-4.968 62.777,-1.203 50.472,-0.742 38.265,-0.14 25.539,0.488 12.757,0 0,0 m 69.744,-615.099 c 25.064,0.354 48.175,1.636 71.192,4.619 28.968,3.754 52.954,16.161 70.391,40.035 21.587,29.556 28.482,62.545 20.905,98.089 -4.596,21.558 -18.092,35.451 -40.49,39.721 -14.636,2.79 -29.443,3.717 -44.251,3.913 -28.963,0.381 -57.934,0.19 -86.902,0.193 -5.884,10e-4 -5.837,-0.094 -6.867,-6.107 -9.96,-58.176 -19.935,-116.348 -29.913,-174.521 -0.998,-5.82 -1.021,-5.904 4.71,-5.925 14.367,-0.053 28.736,-0.017 41.225,-0.017 m -718.662,-16.602 c 27.358,0 54.717,-0.014 82.076,0.011 5.877,0.005 5.979,0.051 6.993,5.874 4.682,26.905 9.555,53.78 13.877,80.744 4.798,29.939 10.634,59.701 14.778,89.755 1.863,13.511 4.673,26.914 7.216,40.339 5.343,28.209 9.731,56.597 14.53,84.909 6.152,36.291 12.292,72.585 18.507,108.865 1.461,8.533 1.589,8.514 -7.404,8.514 -51.008,0.001 -102.016,0.001 -153.023,0.001 -3.014,0 -6.04,-0.167 -9.04,0.042 -3.509,0.245 -4.872,-1.28 -5.4,-4.67 -1.748,-11.198 -3.758,-22.356 -5.689,-33.525 -4.809,-27.83 -9.641,-55.655 -14.444,-83.486 -3.425,-19.842 -6.836,-39.687 -10.22,-59.536 -3.928,-23.039 -6.832,-46.233 -11.209,-69.215 -5.544,-29.112 -10.221,-58.389 -15.228,-87.602 -4.344,-25.342 -8.647,-50.691 -12.916,-76.046 -0.796,-4.726 -0.681,-4.762 3.824,-4.964 1.389,-0.062 2.782,-0.01 4.173,-0.01 26.2,0 52.399,0 78.599,0 m 244.103,-115.918 c -0.076,-14.373 0.877,-28.691 3.494,-42.871 5.107,-27.664 16.748,-51.902 37.527,-71.314 17.347,-16.207 37.765,-24.744 61.663,-24.751 21.956,-0.006 41.151,7.939 58.994,19.991 20.443,13.809 35.582,32.383 47.708,53.539 21.306,37.167 35.421,76.933 42.006,119.278 4.801,30.869 5.933,61.798 0.313,92.729 -3.687,20.296 -10.668,39.235 -22.175,56.519 -25.798,38.751 -69.326,48.319 -106.317,35.716 -18.771,-6.396 -34.95,-17.052 -49.147,-30.725 -16.928,-16.304 -29.17,-35.953 -39.343,-56.916 -23.152,-47.708 -33.942,-98.308 -34.723,-151.195 m -49.123,192.419 c 2.34,2.058 2.953,4.601 4.047,6.838 17.642,36.077 40.623,68.005 72.398,93.075 2.954,2.331 4.312,5.095 4.931,8.741 10.381,61.21 20.841,122.406 31.328,183.598 10.453,60.995 20.987,121.977 31.423,182.975 7.305,42.694 14.497,85.408 21.756,128.109 2.213,13.018 4.472,26.029 6.734,39.038 0.953,5.483 1.048,5.626 6.631,5.633 27.138,0.034 54.276,0.034 81.415,0 6.257,-0.009 6.235,-0.089 5.175,-6.283 -11.297,-65.995 -22.561,-131.996 -33.887,-197.986 -9.449,-55.054 -18.983,-110.092 -28.452,-165.143 -7.027,-40.859 -14.013,-81.725 -21.009,-122.589 -0.429,-2.511 -0.613,-5.077 -1.223,-7.539 -0.823,-3.324 0.513,-4.169 3.558,-3.762 8.755,1.173 17.562,1.349 26.384,1.385 8.605,0.036 17.136,-0.765 25.669,-1.73 5.283,-0.597 5.542,-0.374 6.402,4.617 3.307,19.176 6.578,38.358 9.849,57.54 4.711,27.628 9.398,55.261 14.117,82.887 6.358,37.22 12.734,74.436 19.108,111.652 6.139,35.847 12.295,71.692 18.428,107.54 7.309,42.723 14.528,85.461 21.946,128.164 2.37,13.648 -0.266,11.184 12.846,11.211 56.132,0.116 112.265,0.03 168.397,0.06 17.653,0.01 35.229,-0.81 52.619,-4.115 38.6,-7.338 63.973,-30.683 79.588,-65.786 7.736,-17.39 11.206,-35.829 12.17,-54.665 2.409,-47.027 -6.514,-91.629 -28.548,-133.593 -23.214,-44.209 -60.039,-69.433 -108.126,-79.512 -20.999,-4.401 -42.386,-4.627 -63.706,-4.907 -26.67,-0.352 -53.348,-0.164 -80.022,-0.208 -1.392,-0.002 -2.794,-0.112 -4.173,0.023 -3.392,0.332 -4.974,-1.035 -5.534,-4.51 -2.654,-16.462 -5.504,-32.893 -8.311,-49.33 -7.293,-42.709 -14.602,-85.415 -21.898,-128.124 -0.897,-5.254 -1.274,-10.654 -2.758,-15.734 -1.419,-4.855 0.384,-7.76 3.647,-10.907 11.404,-10.995 21.154,-23.359 29.432,-36.868 5.942,-9.698 11.021,-19.833 15.307,-30.374 0.67,-1.647 0.802,-3.652 2.935,-5.063 1.15,1.135 1.276,2.726 1.518,4.147 9.971,58.468 19.91,116.941 29.858,175.412 1.476,8.682 2.973,17.36 4.463,26.039 0.915,5.329 0.916,5.394 6.66,5.403 20.179,0.03 40.359,0.019 60.539,0.009 53.813,-0.026 107.626,0.031 161.439,-0.14 17.433,-0.055 34.688,-2.107 51.736,-5.944 31.673,-7.128 56.02,-24.666 74.147,-51.34 14.09,-20.734 22.071,-43.743 25.769,-68.344 2.311,-15.369 4.174,-30.789 3.288,-46.403 -2.669,-47.066 -12.998,-91.954 -35.565,-133.874 -23.317,-43.315 -58.274,-71.789 -104.873,-86.758 -22.789,-7.321 -46.21,-9.64 -69.908,-10.579 -28.749,-1.138 -57.511,-0.939 -86.271,-1.008 -13.453,-0.032 -26.907,-0.099 -40.359,0.057 -3.63,0.043 -5.424,-1.019 -6.058,-4.822 -4.761,-28.557 -9.696,-57.086 -14.566,-85.625 -5.222,-30.61 -10.422,-61.224 -15.653,-91.833 -3.358,-19.651 -6.852,-39.278 -10.066,-58.952 -0.874,-5.353 -0.749,-5.773 -6.357,-5.768 -32.938,0.029 -65.875,-0.002 -98.813,0.028 -5.715,0.005 -5.662,0.086 -4.656,5.906 3.988,23.068 7.945,46.142 11.888,69.218 0.228,1.334 0.821,2.701 -0.103,4.312 -2.944,-0.754 -3.975,-3.569 -5.613,-5.587 -25.666,-31.627 -57.101,-55.453 -95.265,-69.992 -30.373,-11.571 -61.843,-15.545 -94.236,-12.821 -56.225,4.729 -97.775,32.836 -127.672,79.66 -18.084,28.323 -29.488,59.165 -34.77,92.312 -0.582,3.653 -1.267,7.29 -1.981,11.378 -1.814,-2.04 -1.992,-4.271 -2.358,-6.429 -8.488,-50.035 -16.975,-100.07 -25.463,-150.106 -0.775,-4.57 -1.769,-9.117 -2.257,-13.717 -0.352,-3.316 -1.91,-4.311 -4.998,-4.185 -3.937,0.161 -7.885,0.038 -11.828,0.038 -23.196,0 -46.391,-0.016 -69.586,0.024 -2.277,0.004 -4.637,-0.51 -7.131,0.75 0.385,7.055 2.047,14.018 3.228,21.032 6.809,40.441 13.699,80.867 20.6,121.292 5.574,32.65 11.2,65.291 16.81,97.934 0.196,1.142 0.534,2.262 0.686,3.407 0.18,1.349 -0.455,2.266 -1.839,2.372 -1.613,0.125 -3.239,0.108 -4.86,0.108 -53.813,0.005 -107.626,0.006 -161.439,0.002 -6.937,0 -6.941,-0.012 -8.156,-7.078 -8.244,-47.943 -16.512,-95.881 -24.721,-143.83 -5.16,-30.138 -10.225,-60.291 -15.348,-90.435 -0.924,-5.434 -0.959,-5.553 -5.927,-5.56 -28.066,-0.041 -56.132,-0.019 -84.199,-0.01 -1.149,0 -2.338,-0.119 -3.796,1.114 1.238,7.565 2.493,15.518 3.847,23.454 5.338,31.284 10.698,62.564 16.067,93.843 5.76,33.559 11.566,67.11 17.305,100.673 7.224,42.25 14.402,84.509 21.596,126.765 6.73,39.532 13.507,79.056 20.163,118.601 4.498,26.723 8.74,53.489 13.251,80.209 3.278,19.414 6.85,38.778 10.218,58.177 5.349,30.81 10.651,61.628 15.947,92.447 6.433,37.441 12.867,74.881 19.248,112.331 9.887,58.021 19.732,116.05 29.587,174.076 4.347,25.594 8.669,51.192 13.018,76.785 0.915,5.383 0.949,5.465 6.712,5.472 27.138,0.033 54.276,0.031 81.415,10e-4 6.377,-0.007 6.394,-0.081 5.373,-6.035 -8.852,-51.628 -17.721,-103.254 -26.563,-154.885 -2.581,-15.072 -5.051,-30.162 -7.648,-45.231 -1.129,-6.548 -1.216,-6.574 5.299,-6.576 40.36,-0.013 80.719,-0.006 121.079,-0.006 14.149,0 28.298,-0.028 42.447,0.013 5.039,0.015 5.189,0.064 6.07,5.104 4.311,24.644 8.57,49.297 12.784,73.957 7.257,42.475 14.456,84.96 21.708,127.436 1.058,6.194 1.132,6.227 7.468,6.231 26.675,0.018 53.35,0.006 80.024,0.005 0.928,0 1.859,-0.059 2.783,-0.001 3.103,0.198 4.028,-1.033 3.425,-4.168 -1.445,-7.507 -2.568,-15.075 -3.853,-22.613 -5.878,-34.478 -11.743,-68.959 -17.659,-103.431 -5.76,-33.563 -11.619,-67.109 -17.356,-100.676 -6.283,-36.758 -12.456,-73.535 -18.712,-110.297 -7.114,-41.81 -14.325,-83.604 -21.383,-125.423 -4.358,-25.82 -8.078,-51.755 -12.863,-77.494 -6.054,-32.567 -11.269,-65.273 -17.028,-97.886 -0.32,-1.816 -0.87,-3.611 -0.3,-6.03"
       style="fill:#ffffff;fill-opacity:1;fill-rule:nonzero;stroke:none"
       transform="matrix(1.3333333,0,0,-1.3333333,2961.4557,1419.9359)"
       clip-path="url(#clipPath5)" />
    <path
       id="path6"
       d="m 0,0 c 1.246,4.055 -0.373,7.607 -1.076,11.143 -6.722,33.825 -26.066,56.616 -59.275,67.065 -4.186,1.317 -8.465,2.402 -12.764,3.291 -30.823,6.374 -61.763,5.938 -92.639,0.736 -18.301,-3.084 -35.132,-10.059 -49.624,-21.972 -37.026,-30.435 -39.414,-90.32 5.033,-119.836 4.443,-2.951 9.008,-5.667 13.759,-8.093 14.296,-7.298 29.43,-12.301 44.847,-16.559 14.498,-4.004 29.388,-6.468 43.71,-11.156 5.945,-1.945 11.847,-4.046 17.172,-7.394 17.189,-10.806 18.307,-31.628 2.421,-44.241 -4.249,-3.374 -9.124,-5.408 -14.344,-6.738 -6.839,-1.743 -13.827,-1.954 -20.743,-1.274 -19.723,1.942 -33.817,11.643 -40.794,30.668 -1.68,4.581 -3.059,9.284 -3.534,14.112 -0.332,3.375 -1.635,4.243 -4.834,4.002 -9.016,-0.68 -18.053,-1.079 -27.08,-1.622 -16.665,-1.002 -33.331,-1.99 -49.991,-3.07 -4.529,-0.294 -4.806,-0.638 -4.163,-5.005 0.707,-4.808 1.386,-9.654 2.603,-14.347 9.805,-37.786 31.315,-64.672 70.567,-74.519 29.331,-7.358 59.152,-8.116 89.105,-5.378 12.242,1.119 24.248,3.712 35.883,7.812 46.078,16.239 67.799,55.896 66.045,92.878 -1.152,24.308 -10.753,44.255 -30.089,59.301 -10.715,8.338 -22.775,14.158 -35.463,18.758 -23.787,8.623 -48.435,14.037 -73.067,19.505 -7.24,1.608 -14.469,3.331 -21.068,6.846 -12.499,6.659 -14.235,20.208 -3.936,29.917 3.645,3.435 8.024,5.358 12.844,6.51 5.942,1.421 11.965,1.536 17.982,1.091 19.732,-1.462 31.557,-11.259 36.784,-30.264 0.184,-0.67 0.367,-1.34 0.547,-2.011 1.357,-5.048 1.362,-5.136 6.807,-4.839 17.593,0.962 35.183,1.971 52.772,3.009 C -17.065,-1.17 -8.534,-0.561 0,0 m 21.429,-62.658 c 0,-46.135 -0.007,-92.27 0.008,-138.405 0.002,-5.59 0.054,-5.654 5.604,-5.655 78.383,-0.014 156.766,-0.005 235.149,-0.019 5.552,-0.001 5.362,-0.074 5.349,5.263 -0.045,17.387 0.038,34.775 -0.039,52.162 -0.041,9.203 1.385,7.976 -8.154,7.985 -47.308,0.045 -94.616,0.024 -141.925,0.017 -6.193,-0.002 -5.687,-0.232 -5.683,5.567 0.009,14.374 -0.063,28.748 0.025,43.121 0.06,9.761 -1.417,8.293 8.504,8.307 41.974,0.059 83.949,0.027 125.923,0.023 6.759,0 6.021,-0.232 6.022,5.956 0.002,13.91 0.086,27.821 -0.057,41.729 -0.038,3.628 1.698,8.189 -0.968,10.659 -2.318,2.149 -6.676,0.682 -10.125,0.686 -41.047,0.043 -82.094,0.021 -123.14,0.036 -6.113,0.002 -6.156,0.051 -6.172,5.919 -0.032,11.128 -0.015,22.256 -0.007,33.384 0.004,6.412 -0.563,5.997 6.003,5.984 1.392,-0.003 2.783,-0.001 4.174,-0.001 45.221,0 90.442,0.009 135.663,-0.01 6.289,-0.003 5.674,0.072 5.668,5.646 -0.017,15.997 0.038,31.993 -0.024,47.99 -0.033,8.699 1.187,7.602 -7.859,7.606 -75.368,0.027 -150.737,0.015 -226.105,0.015 -1.623,0 -3.248,-0.052 -4.87,0.002 -1.96,0.066 -3.055,-0.653 -2.967,-2.781 0.066,-1.62 0.003,-3.245 0.003,-4.868 0,-45.439 0,-90.879 0,-136.318 m 534.29,48.849 c 0.125,0 0.251,0 0.376,0 0,29.443 0.013,58.885 -0.009,88.328 -0.006,7.673 0.719,6.77 -6.541,6.778 -25.509,0.028 -51.019,0.031 -76.528,-10e-4 -7.33,-0.009 -6.556,0.957 -6.62,-6.696 -0.01,-1.159 -10e-4,-2.318 -10e-4,-3.477 -0.001,-53.785 -0.016,-107.57 0.023,-161.356 0.003,-5.346 -0.298,-10.646 -1.088,-15.931 -2.697,-18.049 -14.704,-31.532 -32.251,-36.101 -8.183,-2.131 -16.555,-2.417 -24.872,-1.512 -22.436,2.439 -36.683,15.983 -40.826,38.091 -1.21,6.459 -0.924,12.932 -0.928,19.407 -0.038,53.554 -0.011,107.107 -0.033,160.66 -0.003,7.755 0.927,6.901 -7.14,6.916 -17.857,0.035 -35.713,0.011 -53.57,0.011 -7.884,0 -15.769,0.031 -23.654,-0.01 -5.487,-0.029 -5.489,-0.073 -5.559,-5.788 -0.011,-0.927 -0.002,-1.855 -0.002,-2.782 0,-52.394 0.058,-104.788 -0.037,-157.182 -0.027,-14.69 1.606,-29.14 5.29,-43.333 10.817,-41.672 36.922,-68.54 79.037,-77.84 32.319,-7.137 65.292,-8.122 98.17,-3.362 18.261,2.644 35.566,8.224 50.693,19.454 29.371,21.803 44.16,51.61 45.796,87.419 1.343,29.378 0.274,58.867 0.274,88.307 M 190.303,388.788 c -29.469,0 -57.969,-0.017 -86.469,0.031 -2.326,0.004 -3.472,-0.695 -3.282,-3.167 0.124,-1.614 0.017,-3.245 0.017,-4.868 -0.001,-52.4 0.161,-104.802 -0.092,-157.202 -0.084,-17.32 2.1,-34.211 7.153,-50.692 10.366,-33.813 32.581,-56.411 65.831,-68.157 13.212,-4.668 27.078,-5.959 40.944,-7.199 24.795,-2.216 49.493,-2.496 74.137,1.888 29.273,5.207 52.646,19.729 70.028,43.758 15.082,20.849 21.226,44.792 21.46,69.991 0.526,56.801 0.197,113.61 0.191,170.417 -10e-4,5.116 -0.084,5.188 -5.402,5.193 -26.44,0.027 -52.881,0.027 -79.321,0 -5.277,-0.006 -5.282,-0.081 -5.367,-5.244 -0.023,-1.391 -0.004,-2.782 -0.004,-4.173 0,-53.56 0.004,-107.121 -0.009,-160.681 -10e-4,-4.172 0.07,-8.358 -0.22,-12.514 -1.558,-22.294 -15.084,-37.415 -36.945,-41.754 -6.462,-1.283 -12.942,-1.275 -19.399,-0.819 -21.933,1.549 -37.492,14.983 -41.902,36.124 -1.183,5.672 -1.365,11.492 -1.362,17.303 0.023,54.488 0.013,108.976 0.013,163.463 z m 4.759,-907.953 c 13.337,0.363 29.542,1.118 45.377,5.083 46.477,11.636 78.877,39.229 93.144,85.419 11.378,36.837 11.841,74.587 1.712,111.798 -11.664,42.85 -39.12,72.206 -81.433,85.918 -41.178,13.343 -83.167,13.687 -124.449,0.381 -40.573,-13.078 -68.184,-40.601 -81.194,-81.248 -12.321,-38.496 -12.654,-77.772 -0.224,-116.256 13.374,-41.404 41.016,-69.73 83.101,-82.849 19.854,-6.188 40.4,-7.85 63.966,-8.246 m -432.522,149.044 c 0,-45.422 0,-90.845 0,-136.267 0,-1.623 0.074,-3.249 -0.012,-4.866 -0.107,-2.005 0.671,-3.023 2.759,-2.96 1.621,0.05 3.245,0 4.868,0 39.873,0 79.746,0.11 119.617,-0.055 15.361,-0.064 30.518,1.341 45.556,4.362 16.003,3.215 31.358,7.932 44.794,17.732 23.202,16.923 38.332,39.312 45.325,67.048 5.83,23.127 6.462,46.783 5.204,70.436 -0.899,16.903 -3.748,33.598 -9.346,49.669 -12.05,34.596 -34.275,59.5 -69.526,71.418 -17.279,5.843 -35.344,7.33 -53.48,7.379 -43.117,0.114 -86.235,0.043 -129.353,0.047 -1.159,0 -2.32,-0.048 -3.477,0 -1.981,0.082 -3.022,-0.706 -2.933,-2.809 0.068,-1.62 0.004,-3.244 0.004,-4.867 0,-45.422 0,-90.845 0,-136.267 m 71.928,685.611 c 1.653,-0.459 1.506,-1.486 1.713,-2.282 3.265,-12.54 6.52,-25.083 9.767,-37.627 14.557,-56.226 29.106,-112.455 43.671,-168.679 1.589,-6.137 1.628,-6.14 8.277,-6.142 17.161,-0.008 34.322,-0.003 51.483,-0.003 8.473,0 8.436,0.01 10.649,8.518 17.593,67.631 35.199,135.259 52.826,202.88 0.362,1.387 -0.18,3.456 2.658,3.701 V 100.974 c 1.287,-0.089 2.185,-0.206 3.082,-0.206 21.567,-0.011 43.135,-0.01 64.702,-0.01 0.928,0 1.856,0.033 2.783,0.009 1.706,-0.044 2.533,0.725 2.461,2.47 -0.048,1.157 0.003,2.317 0.003,3.477 10e-4,92.039 0,184.079 0.002,276.119 0,6.659 0.289,5.956 -5.999,5.958 -35.482,0.005 -70.964,0.002 -106.446,0.002 -0.928,0 -1.861,-0.07 -2.782,0.007 -2.27,0.19 -3.386,-0.806 -3.669,-3.073 -0.17,-1.362 -0.737,-2.672 -1.086,-4.016 -13.931,-53.52 -27.857,-107.042 -41.779,-160.564 -0.493,-1.896 -0.517,-3.991 -2.415,-5.423 -0.566,1.885 -1.154,3.639 -1.62,5.425 -14.021,53.735 -27.997,107.483 -42.08,161.203 -2.064,7.873 -0.625,6.392 -7.99,6.408 -35.481,0.075 -70.963,0.042 -106.445,0.008 -1.799,-0.002 -3.72,0.543 -5.384,-0.693 V 101.159 h 73.618 z M -303.148,-53.145 c 0,173.685 0,347.369 0,521.054 0,0.696 0.005,1.392 0,2.087 -0.062,8.146 -0.376,7.568 7.462,7.568 331.701,-0.012 663.402,-0.007 995.103,-0.031 10.545,-0.001 10.233,1.556 8.362,-9.59 -5.528,-32.914 -11.164,-65.809 -16.753,-98.712 -6.794,-39.993 -13.609,-79.982 -20.367,-119.981 -7.22,-42.737 -14.351,-85.489 -21.585,-128.223 -4.912,-29.025 -9.99,-58.021 -14.893,-87.047 -7.102,-42.054 -14.086,-84.128 -21.173,-126.185 -4.968,-29.484 -10.062,-58.946 -15.033,-88.429 -8.98,-53.259 -17.864,-106.534 -26.878,-159.787 -6.151,-36.337 -12.515,-72.639 -18.675,-108.976 -7.013,-41.366 -13.904,-82.752 -20.846,-124.13 -2.019,-12.029 -1.249,-10.003 -12.104,-10.004 -271.623,-0.037 -543.246,-0.029 -814.87,-0.024 -7.825,0 -7.76,-1.313 -7.76,7.964 0.013,174.148 0.01,348.297 0.01,522.446"
       style="fill:#ffffff;fill-opacity:1;fill-rule:nonzero;stroke:none"
       transform="matrix(1.3333333,0,0,-1.3333333,971.16547,1928.9372)"
       clip-path="url(#clipPath7)" />
    <path
       id="path8"
       d="m 0,0 c -0.002,-0.051 -0.005,-0.103 -0.007,-0.154 -3.931,0 -7.861,-0.028 -11.791,0.012 -1.828,0.019 -3.033,-0.49 -3.406,-2.536 -1.241,-6.81 -2.568,-13.604 -3.918,-20.394 -0.494,-2.485 0.563,-3.325 2.928,-3.32 9.009,0.021 18.02,-0.293 26.884,1.963 4.038,1.028 7.163,3.16 9.413,6.555 5.342,8.06 1.883,15.977 -7.647,17.221 C 8.346,-0.116 4.154,-0.199 0,0 m 27.321,-46.332 c 12.981,-4.863 17.579,-15.123 21.519,-25.894 3.64,-9.952 7.28,-19.904 10.889,-29.771 -1.985,-1.8 -3.916,-1.095 -5.637,-1.105 -12.29,-0.075 -24.582,-0.1 -36.873,-0.016 -6.552,0.045 -5.804,-1.363 -8.783,6.168 -4.764,12.047 -9.707,24.024 -14.439,36.083 -2.358,6.007 -6.577,9.333 -12.965,9.995 -4.902,0.508 -5.452,0.23 -6.415,-4.713 -2.567,-13.178 -5.051,-26.372 -7.506,-39.572 -1.482,-7.97 -1.43,-7.982 -9.402,-7.984 -9.74,-0.003 -19.48,-0.019 -29.22,0.005 -6.739,0.017 -6.772,0.048 -5.563,6.413 2.809,14.782 5.653,29.558 8.483,44.335 4.529,23.643 9.056,47.285 13.594,70.926 0.306,1.591 0.915,3.155 0.998,4.751 0.148,2.853 1.791,3.3 4.18,3.272 28.749,-0.332 57.512,0.73 86.249,-0.799 4.632,-0.246 9.193,-1.191 13.581,-2.729 C 60.56,19.337 66.945,10.588 67.363,-0.587 68.03,-18.403 56.946,-34.931 39.268,-42.268 35.866,-43.68 32.285,-44.659 27.321,-46.332"
       style="fill:#ffffff;fill-opacity:1;fill-rule:nonzero;stroke:none"
       transform="matrix(1.3333333,0,0,-1.3333333,3182.9896,2572.8871)"
       clip-path="url(#clipPath9)" />
    <path
       id="path10"
       d="m 0,0 c 1.247,-17.03 8.79,-23.071 25.29,-21.223 5.541,0.621 10.316,2.611 14.035,6.77 5.288,5.914 4.053,13.125 -2.953,16.786 -4.327,2.261 -9.077,3.451 -13.825,4.521 -8.355,1.882 -16.714,3.717 -24.736,6.823 -3.896,1.508 -7.683,3.208 -11.227,5.428 -12.765,7.994 -16.916,19.916 -11.809,34.168 3.684,10.281 10.744,17.706 20.032,23.152 9.375,5.497 19.634,8.012 30.365,9.03 13.695,1.298 27.336,1.373 40.736,-2.145 C 82.787,78.879 91.326,67.645 90.922,51.193 90.852,48.364 90.237,47.124 87.135,46.997 75.786,46.534 64.444,45.84 53.106,45.132 c -2.512,-0.157 -3.583,0.485 -4.114,3.224 -1.837,9.472 -5.486,12.526 -15.002,13.03 -2.763,0.146 -5.586,0.084 -8.317,-0.316 -4.034,-0.592 -7.471,-2.513 -9.812,-5.963 -2.722,-4.012 -1.964,-7.515 2.296,-9.92 3.457,-1.951 7.379,-2.664 11.23,-3.471 C 40.033,39.484 50.647,37.145 60.92,33.471 65.299,31.905 69.522,30.04 73.386,27.45 84.083,20.282 88.541,9.304 85.869,-3.31 82.864,-17.499 74.549,-27.981 62.674,-35.795 53.21,-42.024 42.621,-45.264 31.418,-46.499 c -15.063,-1.662 -30.036,-1.434 -44.935,1.827 -22.192,4.857 -28.943,22.81 -28.305,38.172 0.117,2.831 0.833,4.104 3.852,4.257 C -25.498,-1.612 -13.036,-0.788 0,0"
       style="fill:#ffffff;fill-opacity:1;fill-rule:nonzero;stroke:none"
       transform="matrix(1.3333333,0,0,-1.3333333,3324.4993,2649.6388)"
       clip-path="url(#clipPath11)" />
    <path
       id="path12"
       d="M 0,0 C 16.769,0.005 29.993,13.139 30.046,29.841 30.098,46.474 16.817,59.935 0.239,60.052 -16.783,60.172 -30.129,46.821 -30.071,29.731 -30.014,12.883 -16.979,-0.005 0,0 M -0.375,64.411 C 18.854,64.505 34.264,49.456 34.437,30.419 34.615,10.873 19.288,-4.635 -0.114,-4.539 c -19.219,0.095 -34.489,15.293 -34.508,34.345 -0.018,19.149 15.187,34.513 34.247,34.605"
       style="fill:#ffffff;fill-opacity:1;fill-rule:nonzero;stroke:none"
       transform="matrix(1.3333333,0,0,-1.3333333,3381.0124,1401.5376)"
       clip-path="url(#clipPath13)" />
    <path
       id="path14"
       d="m 0,0 c 0.781,52.887 11.572,103.487 34.723,151.195 10.173,20.963 22.416,40.611 39.344,56.916 14.197,13.673 30.375,24.329 49.146,30.725 36.992,12.603 80.519,3.035 106.318,-35.716 11.506,-17.284 18.488,-36.223 22.175,-56.519 5.619,-30.931 4.487,-61.861 -0.313,-92.729 -6.585,-42.345 -20.701,-82.111 -42.006,-119.278 -12.127,-21.156 -27.266,-39.73 -47.709,-53.539 -17.843,-12.052 -37.038,-19.997 -58.994,-19.991 -23.897,0.007 -44.316,8.544 -61.663,24.75 C 20.243,-94.773 8.601,-70.535 3.495,-42.871 0.877,-28.692 -0.076,-14.374 0,0"
       style="fill:#5171b6;fill-opacity:1;fill-rule:nonzero;stroke:none"
       transform="matrix(1.3333333,0,0,-1.3333333,2421.7019,2416.7611)"
       clip-path="url(#clipPath15)" />
    <path
       id="path16"
       d="m 0,0 c -26.199,0 -52.399,0 -78.598,0 -1.392,0 -2.785,-0.052 -4.173,0.01 -4.506,0.202 -4.62,0.238 -3.824,4.965 4.268,25.354 8.572,50.703 12.915,76.045 5.007,29.213 9.684,58.49 15.228,87.602 4.377,22.982 7.281,46.176 11.209,69.215 3.384,19.849 6.795,39.694 10.22,59.537 4.803,27.83 9.635,55.656 14.445,83.485 1.93,11.169 3.94,22.327 5.688,33.525 0.529,3.391 1.891,4.915 5.401,4.671 2.999,-0.21 6.025,-0.043 9.039,-0.043 51.007,0 102.015,10e-4 153.023,0 8.993,-10e-4 8.865,0.018 7.404,-8.514 -6.214,-36.281 -12.354,-72.575 -18.506,-108.866 -4.799,-28.311 -9.188,-56.7 -14.531,-84.908 -2.543,-13.426 -5.352,-26.829 -7.215,-40.339 C 113.58,146.33 107.744,116.568 102.946,86.629 98.624,59.666 93.751,32.791 89.069,5.885 88.056,0.062 87.954,0.016 82.076,0.011 54.717,-0.014 27.359,0 0,0"
       style="fill:#72bd85;fill-opacity:1;fill-rule:nonzero;stroke:none"
       transform="matrix(1.3333333,0,0,-1.3333333,2096.2313,2262.2043)"
       clip-path="url(#clipPath17)" />
    <path
       id="path18"
       d="m 0,0 c -12.49,0 -26.858,-0.035 -41.226,0.017 -5.73,0.021 -5.708,0.106 -4.709,5.925 9.978,58.173 19.953,116.346 29.913,174.521 1.03,6.013 0.983,6.108 6.867,6.107 28.967,-0.003 57.938,0.189 86.902,-0.193 14.807,-0.195 29.615,-1.122 44.251,-3.912 22.398,-4.27 35.894,-18.164 40.49,-39.722 C 170.065,107.199 163.17,74.21 141.583,44.654 124.146,20.781 100.16,8.373 71.191,4.619 48.175,1.636 25.063,0.354 0,0"
       style="fill:#de2d2d;fill-opacity:1;fill-rule:nonzero;stroke:none"
       transform="matrix(1.3333333,0,0,-1.3333333,3054.4479,2240.0684)"
       clip-path="url(#clipPath19)" />
    <path
       id="path20"
       d="m 0,0 c 12.757,0 25.539,0.488 38.265,-0.14 12.207,-0.602 24.512,-1.063 36.372,-4.828 12.626,-4.009 20.877,-12.448 25.691,-24.514 6.807,-17.065 5.707,-34.432 2.006,-51.943 -3.585,-16.967 -11.309,-31.857 -22.763,-44.687 -10.904,-12.214 -24.391,-20.478 -40.521,-24.193 -14.955,-3.445 -30.14,-4.594 -45.412,-5.736 -20.171,-1.509 -40.32,-0.649 -60.473,-1.056 -1.391,-0.028 -2.783,0.027 -4.175,0.034 -2.347,0.011 -3.419,1.185 -3.068,3.501 0.66,4.349 1.347,8.694 2.084,13.029 4.42,25.988 8.859,51.973 13.288,77.96 3.263,19.148 6.51,38.299 9.789,57.444 0.783,4.567 1.494,5.22 6.469,5.243 C -28.299,0.178 -14.149,0.137 0,0.137 Z"
       style="fill:#f5d363;fill-opacity:1;fill-rule:nonzero;stroke:none"
       transform="matrix(1.3333333,0,0,-1.3333333,2961.4557,1419.9359)"
       clip-path="url(#clipPath21)" />
    <path
       id="path22"
       d="M 0,0 V -214.331 H -73.618 V 72.585 c 1.664,1.235 3.585,0.691 5.384,0.693 35.481,0.034 70.963,0.067 106.445,-0.009 7.365,-0.015 5.926,1.466 7.99,-6.407 14.083,-53.72 28.059,-107.468 42.08,-161.203 0.466,-1.786 1.054,-3.54 1.62,-5.425 1.898,1.432 1.922,3.527 2.415,5.423 13.922,53.522 27.848,107.043 41.778,160.564 0.35,1.343 0.917,2.653 1.087,4.016 0.282,2.267 1.399,3.262 3.669,3.073 0.921,-0.077 1.854,-0.007 2.782,-0.007 35.482,0 70.964,0.003 106.446,-0.003 6.288,-10e-4 5.999,0.702 5.999,-5.957 -0.002,-92.04 -0.001,-184.08 -0.002,-276.119 0,-1.16 -0.051,-2.321 -0.003,-3.478 0.072,-1.744 -0.755,-2.513 -2.462,-2.469 -0.926,0.024 -1.855,-0.009 -2.782,-0.009 -21.567,0 -43.135,-0.001 -64.702,0.01 -0.897,0 -1.795,0.116 -3.082,0.206 V 0.366 c -2.838,-0.245 -2.297,-2.314 -2.658,-3.701 -17.627,-67.622 -35.233,-135.249 -52.826,-202.88 -2.213,-8.508 -2.176,-8.518 -10.649,-8.518 -17.161,0 -34.322,-0.005 -51.483,0.002 -6.649,0.003 -6.688,0.006 -8.278,6.143 C 40.586,-152.364 26.037,-96.135 11.48,-39.909 8.233,-27.365 4.978,-14.822 1.713,-2.282 1.506,-1.486 1.653,-0.459 0,0"
       style="fill:#010101;fill-opacity:1;fill-rule:nonzero;stroke:none"
       transform="matrix(1.3333333,0,0,-1.3333333,750.45627,1508.2837)"
       clip-path="url(#clipPath23)" />
    <path
       id="path24"
       d="m 0,0 c 0,-15.761 0,-31.521 0,-47.282 0,-9.039 0.016,-18.078 -0.009,-27.118 -0.006,-2.198 -0.097,-4.025 3.14,-3.958 14.82,0.306 29.665,-0.585 44.433,1.601 15.797,2.339 26.771,10.822 33.108,25.358 1.288,2.954 2.443,6.04 3.103,9.182 5.644,26.873 6.069,53.851 -0.037,80.645 C 78.309,62.251 64.236,74.251 40.097,77.668 28.768,79.271 17.43,78.724 6.087,78.863 -0.455,78.943 0.004,79.526 0.002,73.009 -0.003,48.673 0,24.336 0,0 m -90.221,0.361 c 0,45.423 0,90.845 0,136.268 0,1.622 0.065,3.247 -0.004,4.866 -0.089,2.103 0.952,2.891 2.933,2.809 1.157,-0.048 2.318,0.001 3.477,0.001 43.118,-0.004 86.236,0.067 129.354,-0.048 18.135,-0.048 36.2,-1.536 53.48,-7.378 35.251,-11.919 57.475,-36.822 69.525,-71.419 5.598,-16.071 8.447,-32.766 9.346,-49.669 1.258,-23.652 0.626,-47.309 -5.204,-70.436 -6.992,-27.736 -22.123,-50.124 -45.325,-67.047 -13.436,-9.8 -28.791,-14.518 -44.794,-17.733 -15.038,-3.021 -30.195,-4.425 -45.555,-4.362 -39.872,0.165 -79.745,0.055 -119.618,0.056 -1.622,0 -3.246,0.049 -4.867,0 -2.088,-0.064 -2.867,0.955 -2.76,2.959 0.086,1.618 0.012,3.244 0.012,4.866 0,45.422 0,90.845 0,136.267"
       style="fill:#010101;fill-opacity:1;fill-rule:nonzero;stroke:none"
       transform="matrix(1.3333333,0,0,-1.3333333,774.84627,2422.9137)"
       clip-path="url(#clipPath25)" />
    <path
       id="path26"
       d="m 0,0 c -0.181,13.306 -0.959,27.153 -5.279,40.531 -5.342,16.545 -15.599,28.853 -31.961,35.274 -13.512,5.303 -27.544,6.04 -41.576,2.191 -20.939,-5.743 -33.235,-20.096 -38.852,-40.519 -5.292,-19.239 -5.383,-38.894 -3.623,-58.59 0.825,-9.23 2.651,-18.294 6.052,-26.989 7.237,-18.497 20.663,-29.758 39.976,-33.896 7.264,-1.556 14.681,-1.706 22.125,-0.929 25.124,2.62 41.237,16.151 48.022,40.384 C -1.273,-28.817 -0.595,-14.729 0,0 m -56.84,-150.163 c -23.566,0.396 -44.112,2.057 -63.966,8.246 -42.085,13.118 -69.727,41.444 -83.101,82.849 -12.43,38.483 -12.097,77.759 0.224,116.256 13.01,40.647 40.621,68.17 81.194,81.248 41.282,13.306 83.271,12.962 124.449,-0.382 42.313,-13.712 69.769,-43.067 81.433,-85.918 10.129,-37.21 9.666,-74.96 -1.712,-111.797 -14.267,-46.19 -46.667,-73.783 -93.144,-85.419 -15.835,-3.965 -32.04,-4.72 -45.377,-5.083"
       style="fill:#010101;fill-opacity:1;fill-rule:nonzero;stroke:none"
       transform="matrix(1.3333333,0,0,-1.3333333,1307.0348,2420.9393)"
       clip-path="url(#clipPath27)" />
    <path
       id="path28"
       d="m 0,0 v -8.302 c 0,-54.487 0.009,-108.975 -0.014,-163.463 -0.002,-5.811 0.179,-11.631 1.363,-17.303 4.41,-21.141 19.968,-34.575 41.901,-36.124 6.458,-0.456 12.938,-0.464 19.4,0.819 21.861,4.339 35.387,19.46 36.945,41.754 0.29,4.156 0.219,8.342 0.22,12.514 0.013,53.561 0.009,107.121 0.009,160.681 0,1.391 -0.019,2.783 0.003,4.173 0.085,5.164 0.09,5.238 5.368,5.244 26.44,0.028 52.88,0.027 79.321,0.001 5.318,-0.006 5.401,-0.078 5.401,-5.194 0.006,-56.806 0.336,-113.616 -0.191,-170.417 -0.233,-25.199 -6.377,-49.142 -21.459,-69.991 -17.382,-24.029 -40.755,-38.551 -70.028,-43.758 -24.644,-4.383 -49.343,-4.103 -74.137,-1.887 -13.866,1.239 -27.732,2.53 -40.945,7.198 -33.25,11.746 -55.464,34.345 -65.83,68.157 -5.053,16.482 -7.237,33.372 -7.153,50.692 0.253,52.4 0.091,104.802 0.091,157.203 0,1.623 0.107,3.253 -0.017,4.867 -0.19,2.472 0.957,3.172 3.283,3.168 C -57.969,-0.017 -29.469,0 0,0"
       style="fill:#010101;fill-opacity:1;fill-rule:nonzero;stroke:none"
       transform="matrix(1.3333333,0,0,-1.3333333,1224.9032,1410.5533)"
       clip-path="url(#clipPath29)" />
    <path
       id="path30"
       d="m 0,0 c 0,-29.44 1.069,-58.929 -0.274,-88.307 -1.636,-35.809 -16.425,-65.616 -45.796,-87.419 -15.128,-11.23 -32.432,-16.81 -50.693,-19.454 -32.878,-4.76 -65.851,-3.775 -98.17,3.362 -42.115,9.3 -68.22,36.168 -79.037,77.84 -3.684,14.193 -5.317,28.644 -5.29,43.333 0.095,52.394 0.037,104.788 0.037,157.182 0,0.928 -0.01,1.855 0.002,2.782 0.07,5.715 0.072,5.759 5.559,5.788 7.885,0.041 15.77,0.01 23.654,0.01 17.857,0 35.713,0.024 53.57,-0.01 8.067,-0.016 7.137,0.838 7.14,-6.916 0.022,-53.554 -0.005,-107.107 0.033,-160.661 0.004,-6.475 -0.282,-12.947 0.928,-19.407 4.143,-22.108 18.389,-35.651 40.826,-38.091 8.317,-0.905 16.688,-0.619 24.872,1.512 17.547,4.57 29.554,18.053 32.251,36.102 0.79,5.284 1.091,10.584 1.088,15.931 -0.039,53.785 -0.024,107.57 -0.023,161.355 0,1.159 -0.009,2.318 10e-4,3.477 0.063,7.653 -0.71,6.687 6.62,6.696 25.509,0.032 51.019,0.029 76.528,0.002 7.26,-0.008 6.535,0.894 6.541,-6.779 C 0.389,58.886 0.376,29.443 0.376,0 0.251,0 0.125,0 0,0"
       style="fill:#010101;fill-opacity:1;fill-rule:nonzero;stroke:none"
       transform="matrix(1.3333333,0,0,-1.3333333,1712.1241,1947.3495)"
       clip-path="url(#clipPath31)" />
    <path
       id="path32"
       d="m 0,0 c 0,45.439 0,90.879 0,136.318 0,1.623 0.063,3.248 -0.003,4.868 -0.087,2.128 1.007,2.847 2.968,2.781 1.621,-0.054 3.246,-0.002 4.869,-0.002 75.369,0.001 150.737,0.013 226.105,-0.015 9.046,-0.004 7.826,1.094 7.86,-7.606 0.061,-15.997 0.006,-31.993 0.023,-47.99 0.006,-5.574 0.621,-5.649 -5.667,-5.646 -45.221,0.019 -90.442,0.01 -135.663,0.01 -1.392,0 -2.783,-0.002 -4.175,10e-4 -6.566,0.013 -5.999,0.428 -6.003,-5.984 -0.008,-11.128 -0.025,-22.256 0.007,-33.384 0.017,-5.867 0.059,-5.917 6.172,-5.919 41.047,-0.015 82.093,0.007 123.14,-0.036 3.449,-0.004 7.808,1.463 10.125,-0.685 2.666,-2.471 0.931,-7.032 0.968,-10.66 0.144,-13.908 0.059,-27.819 0.057,-41.729 -10e-4,-6.188 0.737,-5.956 -6.022,-5.956 -41.974,0.004 -83.949,0.036 -125.923,-0.023 -9.92,-0.014 -8.444,1.454 -8.503,-8.307 -0.088,-14.373 -0.017,-28.747 -0.026,-43.121 -0.004,-5.799 -0.51,-5.568 5.684,-5.567 47.308,0.007 94.616,0.028 141.924,-0.017 9.54,-0.008 8.114,1.218 8.154,-7.985 0.077,-17.387 -0.005,-34.775 0.039,-52.162 0.013,-5.337 0.203,-5.264 -5.349,-5.263 -78.383,0.014 -156.766,0.005 -235.149,0.019 -5.55,0.001 -5.602,0.065 -5.604,5.655 C -0.006,-92.27 0,-46.135 0,0"
       style="fill:#010101;fill-opacity:1;fill-rule:nonzero;stroke:none"
       transform="matrix(1.3333333,0,0,-1.3333333,999.7372,2012.4813)"
       clip-path="url(#clipPath33)" />
    <path
       id="path34"
       d="m 0,0 c -8.534,-0.561 -17.065,-1.17 -25.603,-1.674 -17.589,-1.038 -35.179,-2.047 -52.772,-3.009 -5.445,-0.297 -5.45,-0.209 -6.807,4.839 -0.18,0.671 -0.363,1.341 -0.547,2.011 -5.227,19.005 -17.052,28.802 -36.784,30.264 -6.017,0.445 -12.04,0.33 -17.982,-1.091 -4.82,-1.152 -9.199,-3.075 -12.844,-6.51 -10.299,-9.709 -8.563,-23.258 3.936,-29.917 6.599,-3.515 13.828,-5.238 21.068,-6.846 24.632,-5.468 49.28,-10.882 73.067,-19.505 12.688,-4.6 24.748,-10.42 35.463,-18.758 19.336,-15.046 28.937,-34.993 30.089,-59.301 1.754,-36.982 -19.967,-76.639 -66.045,-92.878 -11.635,-4.1 -23.641,-6.693 -35.883,-7.812 -29.953,-2.738 -59.774,-1.98 -89.105,5.378 -39.252,9.847 -60.762,36.733 -70.567,74.519 -1.217,4.693 -1.896,9.539 -2.603,14.347 -0.643,4.367 -0.366,4.711 4.163,5.005 16.66,1.08 33.326,2.068 49.991,3.07 9.027,0.543 18.064,0.942 27.08,1.622 3.199,0.241 4.502,-0.627 4.834,-4.002 0.475,-4.828 1.854,-9.531 3.534,-14.112 6.977,-19.025 21.071,-28.726 40.794,-30.668 6.916,-0.68 13.904,-0.469 20.743,1.274 5.22,1.33 10.095,3.364 14.344,6.738 15.886,12.613 14.768,33.435 -2.421,44.241 -5.325,3.348 -11.227,5.449 -17.172,7.394 -14.322,4.688 -29.212,7.152 -43.71,11.156 -15.417,4.258 -30.551,9.261 -44.847,16.559 -4.751,2.426 -9.316,5.142 -13.759,8.093 -44.447,29.516 -42.059,89.401 -5.033,119.836 14.492,11.913 31.323,18.888 49.624,21.972 30.876,5.202 61.816,5.638 92.639,-0.736 4.299,-0.889 8.578,-1.974 12.764,-3.291 C -27.142,67.759 -7.798,44.968 -1.076,11.143 -0.373,7.607 1.246,4.055 0,0"
       style="fill:#010202;fill-opacity:1;fill-rule:nonzero;stroke:none"
       transform="matrix(1.3333333,0,0,-1.3333333,971.16547,1928.9372)"
       clip-path="url(#clipPath35)" />
    <path
       id="path36"
       d="m 0,0 c 4.154,-0.199 8.346,-0.116 12.456,-0.653 9.53,-1.244 12.989,-9.161 7.647,-17.221 -2.25,-3.395 -5.375,-5.527 -9.413,-6.555 -8.864,-2.256 -17.875,-1.942 -26.884,-1.963 -2.365,-0.005 -3.422,0.835 -2.928,3.32 1.35,6.79 2.677,13.584 3.918,20.394 0.373,2.046 1.578,2.555 3.406,2.536 3.93,-0.04 7.86,-0.012 11.791,-0.012 C -0.005,-0.103 -0.002,-0.051 0,0"
       style="fill:#0a0a0a;fill-opacity:1;fill-rule:nonzero;stroke:none"
       transform="matrix(1.3333333,0,0,-1.3333333,3182.9896,2572.8871)"
       clip-path="url(#clipPath37)" />
    <path
       id="path38"
       d="m 0,0 c -3.321,6.961 -5.492,13.732 -10.468,19.173 0.784,0.563 1.295,1.004 1.869,1.331 6.395,3.645 8.567,7.47 7.51,13.28 -0.942,5.179 -5.413,8.772 -12.178,9.442 -4.132,0.409 -8.306,0.379 -12.452,0.671 -2.306,0.162 -3.366,-0.596 -3.418,-3.04 -0.263,-12.47 -0.62,-24.938 -0.964,-37.407 -0.055,-2.033 0.146,-3.582 2.851,-3.636 2.593,-0.051 3.817,0.686 3.733,3.486 -0.145,4.792 -0.04,9.592 -0.04,14.107 5.236,1.502 8.045,-0.528 9.931,-4.161 1.486,-2.861 2.768,-5.83 4.082,-8.777 C -7.224,-0.731 -7.243,-0.739 0,0 m -15.976,-8.7 c -16.979,-0.005 -30.014,12.883 -30.071,29.731 -0.058,17.09 13.287,30.44 30.31,30.32 C 0.841,51.234 14.122,37.774 14.07,21.141 14.017,4.439 0.793,-8.695 -15.976,-8.7"
       style="fill:#0a0a0a;fill-opacity:1;fill-rule:nonzero;stroke:none"
       transform="matrix(1.3333333,0,0,-1.3333333,3402.3139,1389.9373)"
       clip-path="url(#clipPath39)" />
    <path
       id="path40"
       d="m 0,0 c 0,24.336 -0.003,48.673 0.002,73.009 0.002,6.517 -0.457,5.934 6.085,5.854 11.343,-0.139 22.681,0.408 34.01,-1.195 24.139,-3.417 38.212,-15.417 43.641,-39.24 6.106,-26.794 5.681,-53.772 0.037,-80.645 -0.66,-3.142 -1.815,-6.228 -3.103,-9.182 -6.337,-14.536 -17.311,-23.019 -33.108,-25.358 -14.768,-2.186 -29.613,-1.295 -44.433,-1.601 -3.237,-0.067 -3.146,1.76 -3.14,3.958 C 0.016,-65.36 0,-56.321 0,-47.282 0,-31.521 0,-15.761 0,0"
       style="fill:#ffffff;fill-opacity:1;fill-rule:nonzero;stroke:none"
       transform="matrix(1.3333333,0,0,-1.3333333,774.84627,2422.9137)"
       clip-path="url(#clipPath41)" />
    <path
       id="path42"
       d="m 0,0 c -0.595,-14.729 -1.273,-28.817 -5.116,-42.543 -6.785,-24.233 -22.898,-37.764 -48.022,-40.384 -7.444,-0.777 -14.861,-0.627 -22.125,0.929 -19.313,4.138 -32.739,15.399 -39.976,33.896 -3.401,8.695 -5.227,17.759 -6.052,26.989 -1.76,19.696 -1.669,39.351 3.623,58.59 5.617,20.423 17.913,34.776 38.852,40.519 14.032,3.849 28.064,3.112 41.576,-2.191 C -20.878,69.384 -10.621,57.076 -5.279,40.531 -0.959,27.153 -0.181,13.306 0,0"
       style="fill:#ffffff;fill-opacity:1;fill-rule:nonzero;stroke:none"
       transform="matrix(1.3333333,0,0,-1.3333333,1307.0348,2420.9393)"
       clip-path="url(#clipPath43)" />
    <path
       id="path44"
       d="m 0,0 c -0.1,-7.86 0.158,-8.096 7.987,-7.305 4.775,0.482 7.008,2.535 7.268,6.682 C 15.543,3.974 13.602,6.083 8.301,6.931 0.541,8.172 0.099,7.803 0,0 m 23.126,-30.847 c -7.243,-0.739 -7.224,-0.731 -9.544,4.469 -1.314,2.947 -2.596,5.916 -4.082,8.777 -1.886,3.633 -4.695,5.663 -9.931,4.161 0,-4.515 -0.105,-9.315 0.04,-14.107 0.084,-2.8 -1.14,-3.537 -3.734,-3.486 -2.704,0.054 -2.906,1.603 -2.85,3.636 0.344,12.469 0.701,24.937 0.964,37.407 0.052,2.443 1.112,3.202 3.417,3.04 4.147,-0.292 8.321,-0.262 12.453,-0.671 6.765,-0.67 11.236,-4.263 12.178,-9.442 1.057,-5.81 -1.115,-9.635 -7.51,-13.28 -0.574,-0.328 -1.085,-0.768 -1.869,-1.331 4.976,-5.441 7.147,-12.212 10.468,-19.173"
       style="fill:#ffffff;fill-opacity:1;fill-rule:nonzero;stroke:none"
       transform="matrix(1.3333333,0,0,-1.3333333,3371.4792,1348.808)"
       clip-path="url(#clipPath45)" />
    <path
       id="path46"
       d="M 0,0 C 0.099,7.803 0.541,8.172 8.301,6.931 13.602,6.083 15.543,3.974 15.255,-0.623 14.995,-4.77 12.762,-6.823 7.987,-7.305 0.158,-8.096 -0.1,-7.86 0,0"
       style="fill:#0a0a0a;fill-opacity:1;fill-rule:nonzero;stroke:none"
       transform="matrix(1.3333333,0,0,-1.3333333,3371.4792,1348.808)"
       clip-path="url(#clipPath47)" />
  </g>
</svg>
